PathFileType	4	(X/Y/Z)	H:\MAC\Pilotos\Biomecanica2_gait_2020\Trimmed_walk3.trc
DataRate	CameraRate	NumFrames	NumMarkers	Units	OrigDataRate	OrigDataStartFrame	OrigNumFrames
150.00	150.00	       10	28	mm	150.00	126	       251
Frame#	Time	R.ASIS			L.ASIS			R.PSIS			L.PSIS			L.Iliac.Crest			R.Iliac.Crest			R.GTR			R.Knee			R.HF			R.TT			R.Ankle			R.Heel			R.MT1			R.MT5			L.GTR			L.Knee			L.HF			L.TT			L.Ankle			L.Heel			L.MT1			L.MT5			R.Knee.Medial			R.Ankle.Medial			R.MT2			L.Knee.Medial			L.Ankle.Medial			L.MT2			V_Mid_ASIS			V_Mid_PSIS			V_Pelvis_Origin			V_R.Hip_JC			V_R.Knee_JC_Static			V_R.TT			V_R.Ankle_JC_Static			V_L.Hip_JC			V_Mid_Hip			V_R.MT2_Static			V_R.Knee.Medial			V_R.Ankle.Medial			V_R.TT			V_L.Knee_JC_Static			V_L.TT			V_L.Ankle_JC_Static			V_L.MT2_Static			V_R.Knee_JC			V_R.Ankle_JC			V_L.Knee_JC			V_L.Ankle_JC			V_R.TT_KJC_Static			V_L.TT_KJC_Static			V_R.TT_KJC			V_L.TT_KJC			V_R.MT2			V_L.MT2			
		X1	Y1	Z1	X2	Y2	Z2	X3	Y3	Z3	X4	Y4	Z4	X5	Y5	Z5	X6	Y6	Z6	X7	Y7	Z7	X8	Y8	Z8	X9	Y9	Z9	X10	Y10	Z10	X11	Y11	Z11	X12	Y12	Z12	X13	Y13	Z13	X14	Y14	Z14	X15	Y15	Z15	X16	Y16	Z16	X17	Y17	Z17	X18	Y18	Z18	X19	Y19	Z19	X20	Y20	Z20	X21	Y21	Z21	X22	Y22	Z22	X23	Y23	Z23	X24	Y24	Z24	X25	Y25	Z25	X26	Y26	Z26	X27	Y27	Z27	X28	Y28	Z28	X29	Y29	Z29	X30	Y30	Z30	X31	Y31	Z31	X32	Y32	Z32	X33	Y33	Z33	X34	Y34	Z34	X35	Y35	Z35	X36	Y36	Z36	X37	Y37	Z37	X38	Y38	Z38	X39	Y39	Z39	X40	Y40	Z40	X41	Y41	Z41	X42	Y42	Z42	X43	Y43	Z43	X44	Y44	Z44	X45	Y45	Z45	X46	Y46	Z46	X47	Y47	Z47	X48	Y48	Z48	X49	Y49	Z49	X50	Y50	Z50	X51	Y51	Z51	X52	Y52	Z52	X53	Y53	Z53	X54	Y54	Z54	X55	Y55	Z55	

126	0.833	981.17883	976.32800	-183.42847	997.28522	968.78613	-440.24014	785.43665	956.63342	-281.61942	786.57404	963.45300	-364.17224	916.40839	1017.67896	-485.23007	899.50641	1028.87512	-144.57831	911.14246	872.56122	-119.82027	996.90936	512.61591	-135.94922	975.84265	467.47556	-132.84740	1038.79480	425.13815	-159.56499	752.63513	186.02263	-199.20871	712.51953	179.68001	-265.47794	870.20825	69.38818	-204.43828	809.49017	82.75078	-143.42218	918.45209	869.64166	-501.93430	891.06903	478.06241	-449.99075	892.26862	421.78677	-450.26862	952.54462	409.46698	-397.05038	852.62891	71.09439	-387.28036	803.91125	36.71928	-336.85474	1010.83997	41.15779	-356.91595	979.59723	33.12300	-403.37292	1050.44702	488.45850	-260.82452	813.54364	181.48460	-269.23709	853.21790	71.78503	-172.70288	899.53943	479.36133	-312.94281	875.30011	90.24551	-303.48038	1010.28326	43.10486	-322.60394																																																																																		
127	0.840	988.67188	976.44128	-184.46976	1005.06311	968.66302	-441.90024	792.75964	956.47540	-281.22580	793.44476	963.47266	-363.75723	923.70758	1017.51086	-486.05130	907.16077	1029.06238	-145.00095	918.99200	873.01819	-120.09308	1008.78186	513.32159	-136.68962	988.64355	466.83069	-134.03471	1052.17761	426.37131	-160.85161	773.52844	178.88718	-199.51639	733.56622	170.28722	-265.77930	896.09204	67.11655	-204.31892	834.92719	78.58746	-143.21272	924.25470	869.53650	-502.37473	893.85199	478.39026	-449.99118	894.42841	422.07025	-450.18622	954.83112	409.28564	-397.38657	852.91876	71.60648	-386.70416	804.39056	37.48695	-335.90979	1011.23773	41.02597	-356.97504	979.73102	33.11084	-403.25275	1061.31665	490.74338	-262.00299	834.55511	176.10222	-269.84747	879.31323	69.03043	-172.48422	903.22888	479.79135	-312.91113	875.88873	91.06401	-303.09549	1010.94586	43.03660	-322.62164																																																																																		
128	0.847	996.21112	976.48004	-185.56752	1011.05139	968.22095	-442.78873	800.04596	956.24988	-280.80896	800.36475	963.40466	-363.29456	930.51270	1017.28168	-486.51300	914.81110	1029.13306	-145.41318	928.27423	873.67609	-120.36125	1020.49249	513.73877	-137.32977	1001.56006	465.81207	-135.01901	1065.54810	427.70816	-162.67932	795.07983	171.12158	-199.98674	755.23169	160.62045	-265.99783	922.27917	65.22645	-204.55116	860.98553	74.29163	-143.14745	930.36615	869.40717	-502.84958	896.65302	478.69904	-449.89963	896.67731	422.41092	-450.06448	957.13770	409.17709	-397.62799	853.16003	72.13511	-386.20621	804.76611	38.26272	-335.07486	1011.55219	40.89936	-357.00922	979.81049	33.10110	-403.14047	1072.29260	492.71497	-263.47952	855.91052	170.50085	-270.43588	905.31232	65.82909	-172.65408	907.25092	480.13989	-313.02908	876.49872	91.32982	-302.85422	1011.37134	42.99399	-322.62576																																																																																		
129	0.853	1003.79749	976.46405	-186.52498	1017.76428	967.80487	-443.74680	807.30219	955.97784	-280.37222	807.26654	963.22607	-362.85703	937.09686	1017.07312	-486.94824	922.55896	1029.13831	-145.79106	936.62097	874.31287	-120.75532	1031.96094	513.81372	-138.06578	1014.54108	464.41577	-136.33374	1078.79822	428.89075	-164.84048	817.05872	163.17847	-200.34660	777.38098	150.72189	-266.05154	948.64496	63.05796	-204.36697	887.11926	70.08527	-143.10001	936.37006	869.24597	-503.18921	899.44147	479.05157	-449.82590	899.03003	422.75644	-449.92242	959.35974	408.73926	-397.66415	853.11871	72.69668	-385.92035	805.08203	39.04173	-334.36627	1011.74750	40.92995	-357.24008	979.85919	33.09222	-403.06674	1082.62415	494.68091	-264.89154	876.94958	164.78865	-271.16489	931.27423	62.70424	-172.71613	911.39899	480.31516	-313.14719	877.27252	91.73330	-302.47281	1011.72955	42.98730	-322.65607																																																																																		
130	0.860	1011.59784	976.81702	-187.73836	1024.37170	967.41321	-444.65646	814.60364	955.69324	-280.01099	814.22223	962.99298	-362.45047	943.18030	1017.38348	-487.72369	930.39624	1029.09436	-146.10577	944.41510	874.37372	-121.06166	1043.26111	513.69891	-138.83257	1027.02441	463.05530	-137.63332	1091.52283	429.98431	-166.91833	839.39355	155.18759	-200.58759	800.15344	140.77377	-266.17090	975.92322	62.41798	-204.34114	913.45831	65.85093	-143.06020	941.96375	869.15845	-503.44424	902.19586	479.43637	-449.77417	901.37811	423.14917	-449.83493	961.79358	408.59048	-397.78076	853.34198	73.30123	-385.60345	805.35046	39.87421	-333.79083	1011.97675	40.86373	-357.32239	979.89600	33.07382	-403.00888	1092.80896	496.45001	-266.46103	899.28656	158.69780	-271.49136	958.04956	59.81051	-172.94766	915.47736	480.40942	-313.27509	877.92810	92.33781	-302.26208	1011.84143	43.00694	-322.79150																																																																																		
131	0.867	1019.05829	976.35028	-188.21107	1031.01526	966.99341	-445.45871	821.87128	955.38513	-279.68417	821.18652	962.71918	-362.09406	949.84436	1017.10455	-488.01804	938.07263	1029.03601	-146.33319	953.01276	874.75470	-121.29200	1054.27441	513.38770	-139.64682	1039.35205	461.65607	-138.96213	1103.85339	431.30344	-168.53580	862.29858	147.17168	-200.95021	823.53723	130.66574	-266.29861	1001.65375	59.01688	-204.00993	940.03625	61.60069	-143.04192	947.77753	868.95361	-503.73071	904.89227	479.83041	-449.73721	903.72217	423.55426	-449.80203	963.68561	408.73953	-398.12167	853.49548	73.82305	-385.06207	805.60498	40.74997	-333.35547	1012.16779	40.78185	-357.40771	979.91602	33.05743	-402.96182	1102.75671	498.00516	-268.23340	921.77399	152.92197	-272.22861	984.50531	57.19390	-172.89372	919.37708	480.41217	-313.35132	878.55573	92.92944	-302.12842	1012.10217	43.02388	-322.84702																																																																																		
132	0.873	1026.61084	976.23645	-188.82491	1037.72595	966.60547	-446.18716	829.18683	955.07507	-279.30591	828.18573	962.39868	-361.70999	956.68030	1016.80798	-488.29587	945.73468	1028.94421	-146.54602	961.59003	874.80310	-121.46834	1064.97949	513.02985	-140.59262	1051.37183	460.39063	-140.32681	1115.80505	431.99237	-170.44562	885.62701	139.35765	-201.01605	847.02185	120.95909	-266.37589	1028.53394	57.11172	-204.41577	966.96069	57.46786	-142.95111	953.60565	868.74597	-503.97217	907.51367	480.31271	-449.78110	905.95697	423.99747	-449.81763	966.66211	408.37939	-398.23032	853.72791	74.44504	-384.91956	805.91797	41.72910	-333.08215	1012.38293	40.70865	-357.52170	979.93896	33.03544	-402.94754	1111.81982	499.48547	-269.67181	944.44287	147.21571	-272.51633	1011.42737	54.70850	-173.18375	923.00574	480.40897	-313.47900	879.26703	93.77264	-302.06491	1012.30847	43.04010	-322.94760																																																																																		
133	0.880	1034.40002	976.35822	-189.55019	1044.44495	966.22363	-446.82382	836.53442	954.79913	-279.00253	835.21008	962.09088	-361.36996	963.12537	1016.77631	-488.33481	953.58429	1028.82263	-146.73109	969.86859	874.85236	-121.73875	1075.23022	512.70514	-141.62137	1063.03308	459.30548	-141.66620	1127.69128	433.01843	-172.55791	909.30585	131.17647	-201.30647	871.17511	110.89478	-266.32468	1055.83093	55.99614	-204.26871	994.08533	53.58367	-143.00537	959.46808	868.56964	-504.17865	910.14954	480.81326	-449.82022	908.19397	424.50064	-449.89670	969.03784	408.25952	-398.61255	853.94550	75.09012	-384.85611	806.14636	42.68959	-332.80435	1012.54950	40.64281	-357.66266	979.94537	33.01045	-402.96490	1120.58582	500.61719	-271.29208	968.23669	141.76089	-273.11118	1038.74146	52.74578	-172.98029	926.63599	480.40829	-313.64194	880.11377	94.58895	-302.13660	1012.62671	43.08001	-323.07199																																																																																		
134	0.887	1042.05139	976.31128	-190.11049	1051.20703	965.87677	-447.34412	843.93341	954.52686	-278.61819	842.32275	961.83289	-360.91858	970.40845	1016.41113	-488.50607	962.22107	1028.59546	-146.78963	978.64441	874.73529	-121.88758	1085.03430	512.39081	-142.70769	1074.30469	458.17288	-142.92508	1139.53516	434.34570	-175.41380	933.18719	123.52455	-201.40939	895.81134	101.51350	-266.37723	1083.00940	54.96316	-204.65703	1021.78302	49.96861	-143.29968	965.35992	868.41077	-504.28262	912.78308	481.37173	-449.89822	910.39349	425.06445	-450.04636	970.90430	408.40622	-399.35019	854.21442	75.78816	-385.14941	806.33972	43.65671	-332.61841	1012.66571	40.61987	-358.32419	979.90186	32.90516	-402.95691	1128.87891	501.40155	-272.81985	990.96759	136.49690	-273.30045	1065.89661	50.87654	-173.25435	930.23877	480.51178	-313.84927	880.98157	95.16100	-302.33121	1012.87140	43.19166	-323.28610																																																																																		
135	0.893	1049.87939	976.17542	-190.60207	1058.00647	965.53699	-447.81430	851.40601	954.27075	-278.20099	849.54199	961.61011	-360.41840	977.58008	1016.05701	-488.58316	969.43781	1028.42688	-146.97876	986.37128	874.68268	-121.64940	1094.22766	512.03271	-143.74628	1084.91052	457.13788	-144.07230	1150.86194	434.97656	-177.59030	957.54266	116.16613	-201.30714	920.61823	92.29004	-265.95248	1109.98572	54.22704	-205.39514	1049.54651	46.77908	-143.63423	971.37341	868.30219	-504.31845	915.46185	481.95862	-450.02631	912.65356	425.62540	-450.17737	973.24286	408.36493	-400.08380	854.33905	76.42079	-384.89429	806.53925	44.67669	-332.53015	1012.75415	40.48065	-358.46265	979.87958	32.86291	-403.04779	1136.51770	501.82297	-274.33890	1014.14777	131.52109	-273.60852	1093.20361	49.85772	-173.46146	933.83380	480.71231	-314.03375	881.57855	95.86509	-302.48062	1013.00854	43.02023	-323.28113																																																																																		
